<svg xmlns="http://www.w3.org/2000/svg" viewBox="0 0 313.03570556640625 109" width="55.00000000000001%"
     height="55.00000000000001%">
    <defs id="SvgjsDefs1573">
        <linearGradient id="SvgjsLinearGradient1577">
            <stop id="SvgjsStop1578" stop-color="#6d7cff" offset="0"></stop>
            <stop id="SvgjsStop1579" stop-color="#ff51ff" offset="1"></stop>
        </linearGradient>
        <linearGradient id="SvgjsLinearGradient1580">
            <stop id="SvgjsStop1581" stop-color="#6d7cff" offset="0"></stop>
            <stop id="SvgjsStop1582" stop-color="#ff51ff" offset="1"></stop>
        </linearGradient>
    </defs>
    <g id="SvgjsG1574" featurekey="root" fill="#262627"></g>
    <g id="SvgjsG1575" featurekey="symbol1" fill="url(#SvgjsLinearGradient1580)"
       transform="matrix(0.7546875000000001,0,0,0.7546875000000001,2.453124999999999,8.453125)">
        <path d="M50,10L10,90h80L50,10z M50,24.909L72.546,70H42.36l3.333-6.667h16.064L50,39.814L31.575,76.667h44.304l3.333,6.666H20.788  L50,24.909z"></path>
    </g>
    <g id="SvgjsG1576" featurekey="text1" fill="url(#SvgjsLinearGradient1577)"
       transform="matrix(4.285714285714286,0,0,4.285714285714286,74.85714163099017,-27.857142857142854)">
        <path d="M2.86 22.44 l6.28 0 l0 1.56 l-7.94 0 l0 -14 l1.66 0 l0 12.44 z M20.18 10 l0 1.56 l-3.88 0 l0 12.44 l-1.66 0 l0 -12.44 l-3.9 0 l0 -1.56 l9.44 0 z M33.5 24 l-1.44 -3.3 l-7.48 0 l-1.44 3.3 l-1.76 0 l6.24 -14 l1.38 0 l6.26 14 l-1.76 0 z M25.2 19.3 l6.24 0 l-3.12 -7.12 z M38.519999999999996 10 l0 14 l-1.66 0 l0 -14 l1.66 0 z M51.2 24 l-1.8 0 l-3.54 -5.04 l-0.38 0 l-2.9 0 l0 5.04 l-1.66 0 l0 -14 l4.56 0 c3.14 0 4.96 1.92 4.96 4.52 c0 2 -1.08 3.56 -3 4.16 z M42.58 11.56 l0 5.92 l2.86 0 c2.02 0 3.34 -1.04 3.34 -2.96 c0 -1.94 -1.32 -2.96 -3.34 -2.96 l-2.86 0 z"></path>
    </g>
</svg>
